<?xml version="1.0" encoding="utf-8"?>
<!-- Generator: Adobe Illustrator 20.1.0, SVG Export Plug-In . SVG Version: 6.00 Build 0)  -->
<svg version="1.1" id="Layer_1" xmlns="http://www.w3.org/2000/svg" xmlns:xlink="http://www.w3.org/1999/xlink" x="0px" y="0px"
	 viewBox="0 0 24 24" style="enable-background:new 0 0 24 24;" xml:space="preserve">
<style type="text/css">
	.st0{clip-path:url(#SVGID_2_);}
	.st1{fill:#333333;}
</style>
<title>menu-mark-the-words-icon</title>
<g id="blanks">
	<g>
		<g>
			<defs>
				<rect id="SVGID_1_" y="0" width="24" height="24"/>
			</defs>
			<clipPath id="SVGID_2_">
				<use xlink:href="#SVGID_1_"  style="overflow:visible;"/>
			</clipPath>
			<g class="st0">
				<polygon class="st1" points="16.3,14.6 16.3,14.6 16.3,8.7 13.1,8.7 13.7,9.8 15.2,9.8 15.2,14.6 10.4,14.6 10.4,13 9.3,13 
					9.3,15.7 16.3,15.7 				"/>
				<path class="st1" d="M17.1,12v0.3v0.6v0.3c1.2,0.3,2.1,1.3,2.1,2.6c0,1.5-1.2,2.7-2.7,2.7c-1.2,0-2.2-0.8-2.6-1.9h-0.3h-0.6
					h-0.3c0.4,1.7,1.9,3,3.7,3c2.1,0,3.8-1.7,3.8-3.8C20.3,13.9,18.9,12.3,17.1,12z"/>
				<path class="st1" d="M8.7,3.8l-4.8,8.3h9.6L8.7,3.8z M8.7,6l2.9,5H5.9L8.7,6z"/>
			</g>
		</g>
	</g>
</g>
</svg>
